<svg xmlns="http://www.w3.org/2000/svg" xmlns:xlink="http://www.w3.org/1999/xlink" width="500" zoomAndPan="magnify" viewBox="0 0 375 374.999991" height="500" preserveAspectRatio="xMidYMid meet" version="1.0"><defs><g/><clipPath id="c4d6c309fb"><path d="M 126 89.140625 L 275.164062 89.140625 L 275.164062 229.390625 L 126 229.390625 Z M 126 89.140625 " clip-rule="nonzero"/></clipPath><clipPath id="681db50edc"><path d="M 100 89.140625 L 250 89.140625 L 250 229.390625 L 100 229.390625 Z M 100 89.140625 " clip-rule="nonzero"/></clipPath></defs><rect x="-37.5" width="450" fill="#ffffff" y="-37.499999" height="449.999989" fill-opacity="1"/><rect x="-37.5" width="450" fill="#ffffff" y="-37.499999" height="449.999989" fill-opacity="1"/><path fill="#c90c0f" d="M 223.210938 202.6875 L 223.203125 202.640625 C 223.175781 202.5 223.21875 202.519531 223.0625 202 C 222.996094 201.800781 222.917969 201.605469 222.828125 201.421875 C 222.738281 201.253906 222.683594 201.191406 222.609375 201.074219 C 222.535156 200.96875 222.460938 200.863281 222.382812 200.761719 C 222.308594 200.664062 222.238281 200.605469 222.164062 200.523438 C 222.019531 200.378906 221.855469 200.207031 221.722656 200.109375 L 221.292969 199.777344 L 220.882812 199.515625 C 220.339844 199.179688 219.824219 198.949219 219.316406 198.726562 C 218.304688 198.308594 217.328125 198.007812 216.355469 197.75 C 215.390625 197.488281 214.429688 197.28125 213.480469 197.097656 C 211.578125 196.734375 209.714844 196.460938 207.875 196.265625 C 204.203125 195.859375 200.65625 195.675781 197.300781 195.613281 C 193.941406 195.550781 190.773438 195.625 187.855469 195.773438 C 184.9375 195.898438 182.269531 196.125 179.910156 196.382812 C 177.550781 196.621094 175.503906 196.921875 173.824219 197.191406 C 172.144531 197.460938 170.835938 197.730469 169.945312 197.914062 C 169.050781 198.101562 168.582031 198.21875 168.582031 198.21875 L 168.605469 198.398438 C 168.605469 198.398438 169.089844 198.375 169.996094 198.335938 C 170.902344 198.289062 172.230469 198.261719 173.917969 198.214844 C 175.605469 198.175781 177.65625 198.171875 180 198.179688 C 181.171875 198.1875 182.417969 198.210938 183.734375 198.25 C 185.050781 198.28125 186.417969 198.316406 187.867188 198.378906 C 189.304688 198.4375 190.800781 198.519531 192.347656 198.621094 C 193.894531 198.714844 195.492188 198.828125 197.132812 198.96875 C 200.40625 199.234375 203.851562 199.609375 207.363281 200.144531 C 209.113281 200.421875 210.890625 200.71875 212.640625 201.121094 C 213.515625 201.316406 214.378906 201.546875 215.230469 201.789062 C 216.074219 202.03125 216.90625 202.308594 217.644531 202.636719 C 217.894531 202.75 218.136719 202.867188 218.355469 202.984375 C 217.851562 203.257812 217.203125 203.523438 216.539062 203.742188 C 216.113281 203.886719 215.75 203.992188 215.257812 204.132812 L 213.949219 204.476562 C 212.160156 204.902344 210.3125 205.238281 208.457031 205.511719 C 206.601562 205.796875 204.730469 206.027344 202.871094 206.214844 C 199.148438 206.597656 195.449219 206.832031 191.878906 206.980469 C 188.28125 207.121094 184.828125 207.183594 181.53125 207.160156 C 178.242188 207.128906 175.128906 207.054688 172.265625 206.871094 C 169.402344 206.683594 166.785156 206.453125 164.484375 206.121094 C 162.191406 205.777344 160.199219 205.390625 158.652344 204.851562 C 157.890625 204.578125 157.222656 204.273438 156.757812 203.910156 C 156.652344 203.8125 156.523438 203.730469 156.453125 203.628906 C 156.410156 203.578125 156.371094 203.53125 156.332031 203.484375 C 156.304688 203.4375 156.28125 203.394531 156.253906 203.351562 C 156.1875 203.289062 156.179688 203.121094 156.148438 203.007812 C 156.132812 202.960938 156.136719 202.824219 156.15625 202.746094 C 156.234375 202.367188 156.46875 202.097656 156.613281 201.933594 C 156.765625 201.769531 156.863281 201.6875 156.863281 201.6875 L 156.75 201.546875 C 156.75 201.546875 156.648438 201.605469 156.453125 201.753906 C 156.269531 201.910156 155.953125 202.128906 155.757812 202.628906 C 155.714844 202.761719 155.671875 202.871094 155.679688 203.074219 C 155.695312 203.207031 155.671875 203.316406 155.742188 203.5 C 155.773438 203.585938 155.800781 203.679688 155.839844 203.761719 C 155.882812 203.835938 155.925781 203.90625 155.96875 203.984375 C 156.054688 204.144531 156.179688 204.257812 156.296875 204.402344 C 156.796875 204.9375 157.480469 205.367188 158.257812 205.765625 C 159.828125 206.550781 161.820312 207.246094 164.136719 207.839844 C 166.457031 208.433594 169.097656 208.980469 172 209.398438 C 174.898438 209.832031 178.054688 210.199219 181.402344 210.433594 C 184.742188 210.679688 188.296875 210.820312 191.941406 210.824219 C 193.78125 210.835938 195.640625 210.808594 197.527344 210.734375 C 199.414062 210.667969 201.328125 210.566406 203.253906 210.40625 C 207.109375 210.097656 211.019531 209.617188 214.960938 208.703125 C 215.460938 208.578125 215.941406 208.460938 216.457031 208.320312 C 216.894531 208.195312 217.457031 208.027344 217.941406 207.855469 C 218.441406 207.683594 218.949219 207.492188 219.460938 207.265625 C 219.976562 207.042969 220.5 206.777344 221.050781 206.421875 C 221.324219 206.242188 221.609375 206.035156 221.902344 205.765625 C 222.042969 205.648438 222.203125 205.464844 222.34375 205.308594 C 222.496094 205.117188 222.640625 204.929688 222.78125 204.679688 C 222.851562 204.554688 222.914062 204.421875 222.972656 204.289062 C 223.03125 204.144531 223.082031 203.984375 223.125 203.824219 C 223.171875 203.675781 223.195312 203.492188 223.210938 203.320312 L 223.230469 203.058594 C 223.238281 203.066406 223.195312 202.4375 223.210938 202.6875 " fill-opacity="1" fill-rule="nonzero"/><path fill="#c90c0f" d="M 243.644531 156.464844 L 243.589844 157.726562 L 243.566406 158.359375 L 243.550781 158.675781 C 243.546875 158.707031 243.542969 158.746094 243.539062 158.777344 C 243.464844 159.148438 243.414062 159.527344 243.371094 159.902344 L 243.304688 160.390625 C 243.292969 160.546875 243.261719 160.714844 243.210938 160.894531 C 243.128906 161.242188 243.046875 161.585938 242.96875 161.929688 C 242.878906 162.28125 242.832031 162.632812 242.695312 162.957031 C 242.582031 163.296875 242.472656 163.632812 242.359375 163.960938 C 242.242188 164.300781 242.15625 164.636719 241.996094 164.953125 C 241.855469 165.277344 241.714844 165.59375 241.578125 165.910156 C 241.4375 166.234375 241.304688 166.5625 241.128906 166.855469 C 239.847656 169.316406 238.15625 171.476562 236.25 173.242188 C 234.355469 175.027344 232.21875 176.355469 230.113281 177.332031 C 229.847656 177.460938 229.585938 177.582031 229.324219 177.699219 C 229.0625 177.820312 228.796875 177.898438 228.535156 178 C 228.003906 178.183594 227.492188 178.40625 226.976562 178.554688 C 225.929688 178.804688 224.9375 179.140625 223.96875 179.242188 C 223.730469 179.285156 223.492188 179.332031 223.257812 179.367188 C 223.339844 179.09375 223.425781 178.816406 223.519531 178.542969 C 223.675781 178.058594 223.84375 177.574219 224.019531 177.09375 C 224.132812 176.796875 224.25 176.484375 224.367188 176.199219 C 224.515625 176.097656 224.667969 175.996094 224.816406 175.890625 C 225.460938 175.425781 226.054688 174.921875 226.609375 174.40625 C 227.152344 173.871094 227.640625 173.320312 228.070312 172.75 C 228.910156 171.601562 229.484375 170.382812 229.726562 169.234375 C 229.753906 169.089844 229.78125 168.953125 229.8125 168.8125 C 229.828125 168.671875 229.84375 168.535156 229.863281 168.402344 C 229.902344 168.140625 229.898438 167.851562 229.90625 167.597656 C 229.910156 167.335938 229.875 167.140625 229.867188 166.929688 C 229.851562 166.660156 229.816406 166.476562 229.777344 166.269531 C 229.613281 165.472656 229.347656 164.898438 229.164062 164.523438 C 229.070312 164.335938 228.984375 164.191406 228.929688 164.101562 C 228.875 164.011719 228.847656 163.96875 228.847656 163.96875 L 228.507812 164.109375 C 228.507812 164.109375 228.558594 164.320312 228.625 164.703125 C 228.695312 165.085938 228.753906 165.65625 228.714844 166.351562 C 228.703125 166.515625 228.683594 166.726562 228.65625 166.875 C 228.617188 167.070312 228.589844 167.308594 228.539062 167.5 C 228.433594 167.863281 228.316406 168.296875 228.109375 168.707031 C 227.917969 169.136719 227.667969 169.5625 227.359375 169.980469 C 227.066406 170.40625 226.683594 170.808594 226.28125 171.214844 C 225.453125 172.011719 224.417969 172.757812 223.230469 173.410156 C 222.859375 173.609375 222.472656 173.808594 222.070312 173.996094 C 221.835938 174.109375 221.59375 174.214844 221.347656 174.316406 C 221.136719 174.40625 220.917969 174.5 220.699219 174.582031 C 220.242188 174.765625 219.769531 174.933594 219.285156 175.085938 C 217.859375 175.558594 216.339844 175.921875 214.773438 176.191406 C 213.988281 176.324219 213.195312 176.4375 212.394531 176.523438 C 211.988281 176.558594 211.589844 176.601562 211.183594 176.625 C 210.777344 176.65625 210.375 176.683594 209.96875 176.699219 C 209.5625 176.726562 209.15625 176.726562 208.75 176.734375 L 208.625 176.738281 L 208.464844 176.734375 L 208.144531 176.734375 L 207.511719 176.726562 C 206.730469 176.710938 205.921875 176.683594 205.125 176.609375 C 203.527344 176.492188 201.96875 176.261719 200.484375 175.945312 C 199.738281 175.789062 199.023438 175.601562 198.320312 175.40625 C 197.621094 175.195312 196.945312 174.976562 196.296875 174.726562 C 195 174.242188 193.832031 173.660156 192.8125 173.03125 C 191.796875 172.398438 190.953125 171.703125 190.28125 171.007812 C 189.605469 170.3125 189.140625 169.597656 188.820312 168.972656 C 188.5 168.34375 188.347656 167.796875 188.246094 167.421875 C 188.167969 167.039062 188.128906 166.832031 188.128906 166.832031 L 187.761719 166.832031 C 187.761719 166.832031 187.730469 167.050781 187.695312 167.472656 C 187.699219 167.886719 187.675781 168.523438 187.863281 169.308594 C 188.042969 170.089844 188.386719 171.027344 188.996094 171.984375 C 189.5 172.792969 190.171875 173.617188 190.996094 174.402344 C 190.003906 174.316406 189.011719 174.257812 188.015625 174.222656 C 186.132812 174.15625 184.242188 174.179688 182.359375 174.273438 C 181.941406 174.296875 181.523438 174.320312 181.105469 174.359375 C 181.097656 174.351562 181.085938 174.359375 181.074219 174.359375 L 181.054688 174.359375 C 180.882812 174.363281 180.667969 174.375 180.414062 174.382812 C 180.039062 174.402344 179.589844 174.386719 179.078125 174.375 C 178.550781 174.382812 177.976562 174.335938 177.34375 174.285156 C 177.019531 174.273438 176.695312 174.234375 176.363281 174.183594 C 176.027344 174.140625 175.664062 174.105469 175.3125 174.042969 C 174.957031 173.980469 174.585938 173.910156 174.210938 173.84375 C 173.847656 173.753906 173.464844 173.660156 173.085938 173.570312 C 173.046875 173.558594 173.007812 173.546875 172.972656 173.539062 C 172.621094 173.441406 172.285156 173.328125 171.933594 173.226562 C 171.855469 173.199219 171.773438 173.175781 171.695312 173.144531 C 171.382812 173.042969 171.078125 172.921875 170.765625 172.808594 C 170.378906 172.652344 169.996094 172.472656 169.605469 172.3125 C 169.234375 172.117188 168.84375 171.9375 168.472656 171.722656 C 167.734375 171.304688 167 170.847656 166.332031 170.328125 C 165.644531 169.820312 165.015625 169.265625 164.425781 168.683594 C 163.835938 168.117188 163.320312 167.5 162.839844 166.910156 C 162.375 166.304688 161.953125 165.710938 161.601562 165.140625 C 160.890625 163.992188 160.40625 162.957031 160.113281 162.214844 C 159.820312 161.472656 159.707031 161.042969 159.707031 161.042969 C 159.671875 160.917969 159.558594 160.828125 159.425781 160.835938 C 159.277344 160.847656 159.160156 160.972656 159.164062 161.125 L 159.167969 161.132812 C 159.167969 161.132812 159.191406 161.613281 159.34375 162.4375 C 159.492188 163.253906 159.773438 164.421875 160.269531 165.78125 C 160.515625 166.460938 160.832031 167.183594 161.203125 167.9375 C 161.589844 168.679688 162.015625 169.460938 162.535156 170.226562 C 163.054688 171 163.636719 171.769531 164.292969 172.503906 C 164.9375 173.246094 165.667969 173.9375 166.425781 174.609375 C 166.804688 174.941406 167.214844 175.242188 167.605469 175.558594 C 168 175.835938 168.378906 176.117188 168.769531 176.378906 C 168.625 176.417969 168.472656 176.449219 168.328125 176.488281 C 167.410156 176.75 166.484375 176.984375 165.578125 177.269531 C 164.667969 177.554688 163.753906 177.835938 162.855469 178.160156 C 161.953125 178.460938 161.066406 178.804688 160.171875 179.144531 C 159.46875 179.402344 158.785156 179.703125 158.09375 179.996094 C 157.917969 179.917969 157.746094 179.847656 157.566406 179.78125 L 156.714844 179.34375 C 156.121094 179.082031 155.597656 178.699219 155.027344 178.371094 C 153.949219 177.636719 152.867188 176.832031 151.929688 175.878906 C 150.960938 174.960938 150.09375 173.933594 149.304688 172.875 C 148.507812 171.832031 147.84375 170.71875 147.230469 169.648438 C 146.644531 168.558594 146.117188 167.5 145.703125 166.488281 C 144.835938 164.46875 144.320312 162.6875 143.988281 161.429688 C 143.667969 160.164062 143.550781 159.4375 143.550781 159.4375 C 143.535156 159.316406 143.433594 159.21875 143.300781 159.207031 C 143.152344 159.195312 143.019531 159.3125 143.007812 159.460938 L 143.007812 159.464844 C 143.007812 159.464844 142.949219 160.230469 142.972656 161.570312 C 143.007812 162.902344 143.105469 164.828125 143.503906 167.121094 C 143.683594 168.277344 143.976562 169.511719 144.324219 170.820312 C 144.707031 172.121094 145.148438 173.496094 145.757812 174.882812 C 146.355469 176.265625 147.0625 177.679688 147.957031 179.046875 C 148.8125 180.441406 149.878906 181.746094 151.03125 183.007812 C 151.640625 183.601562 152.214844 184.242188 152.886719 184.777344 L 153.871094 185.609375 C 153.921875 185.644531 153.972656 185.679688 154.027344 185.71875 C 153.992188 185.710938 153.964844 185.703125 153.929688 185.691406 C 151.867188 185.03125 149.429688 184.03125 146.902344 182.476562 C 144.363281 180.953125 141.765625 178.847656 139.421875 176.164062 C 137.089844 173.484375 135.050781 170.179688 133.707031 166.417969 C 133.042969 164.539062 132.535156 162.558594 132.246094 160.5 L 132.140625 159.730469 L 132.066406 158.945312 L 132 158.167969 L 131.972656 157.378906 C 131.941406 156.851562 131.953125 156.320312 131.953125 155.789062 L 131.960938 155.390625 L 131.960938 155.273438 L 131.972656 155.054688 L 132.023438 154.160156 C 132.175781 152.125 132.605469 150.015625 133.296875 147.984375 C 133.988281 145.949219 134.957031 143.988281 136.144531 142.132812 C 138.554688 138.445312 141.90625 135.265625 145.785156 132.9375 C 149.667969 130.617188 154.050781 129.125 158.457031 128.699219 L 159.28125 128.617188 L 160.101562 128.582031 C 160.652344 128.542969 161.203125 128.558594 161.746094 128.558594 L 162.054688 128.558594 C 162.050781 128.558594 162.039062 128.554688 162.035156 128.554688 L 162.105469 128.558594 C 162.109375 128.558594 162.109375 128.558594 162.109375 128.558594 L 162.503906 128.585938 L 163.429688 128.652344 C 164.101562 128.671875 164.539062 128.761719 165.050781 128.8125 C 165.300781 128.855469 165.546875 128.863281 165.808594 128.914062 L 166.609375 129.066406 L 167.414062 129.214844 L 168.203125 129.40625 C 168.734375 129.539062 169.261719 129.667969 169.785156 129.839844 C 170.308594 130.007812 170.832031 130.140625 171.347656 130.339844 C 173.421875 131.042969 175.449219 131.921875 177.425781 132.902344 C 179.40625 133.871094 181.34375 134.917969 183.25 135.976562 C 185.164062 137.011719 187.042969 138.0625 188.921875 139.035156 C 190.800781 140 192.667969 140.902344 194.519531 141.671875 C 196.390625 142.421875 198.234375 143.042969 200.03125 143.507812 C 200.488281 143.617188 200.941406 143.707031 201.382812 143.800781 C 201.605469 143.84375 201.828125 143.886719 202.046875 143.9375 C 202.269531 143.96875 202.488281 144.003906 202.703125 144.035156 C 203.144531 144.09375 203.578125 144.15625 204 144.214844 C 204.433594 144.25 204.851562 144.28125 205.261719 144.308594 C 205.472656 144.324219 205.679688 144.335938 205.886719 144.351562 L 206.488281 144.351562 C 206.894531 144.347656 207.289062 144.347656 207.679688 144.339844 C 208.449219 144.316406 209.191406 144.230469 209.898438 144.167969 C 210.597656 144.046875 211.269531 143.925781 211.910156 143.8125 C 212.535156 143.652344 213.136719 143.503906 213.699219 143.355469 C 215.933594 142.695312 217.5625 141.917969 218.644531 141.355469 C 219.710938 140.769531 220.285156 140.460938 220.285156 140.460938 C 220.386719 140.398438 220.449219 140.269531 220.417969 140.148438 C 220.371094 140 220.226562 139.910156 220.078125 139.957031 L 220.054688 139.964844 C 220.054688 139.964844 219.445312 140.132812 218.296875 140.453125 C 217.160156 140.769531 215.449219 141.117188 213.308594 141.367188 C 211.167969 141.597656 208.550781 141.542969 205.710938 140.914062 C 205.359375 140.832031 205 140.753906 204.632812 140.667969 C 204.589844 140.65625 204.550781 140.648438 204.507812 140.632812 C 204.589844 140.554688 204.683594 140.480469 204.765625 140.398438 C 204.96875 140.214844 205.226562 140.027344 205.476562 139.820312 C 205.734375 139.625 205.992188 139.394531 206.285156 139.1875 C 207.445312 138.320312 208.917969 137.371094 210.703125 136.53125 C 211.597656 136.125 212.558594 135.726562 213.589844 135.390625 C 214.109375 135.230469 214.636719 135.066406 215.191406 134.941406 C 215.738281 134.78125 216.308594 134.691406 216.886719 134.578125 C 218.046875 134.386719 219.253906 134.242188 220.507812 134.234375 C 221.136719 134.207031 221.769531 134.242188 222.414062 134.273438 C 223.074219 134.34375 223.75 134.414062 224.421875 134.488281 L 224.972656 134.546875 L 225.433594 134.660156 C 225.734375 134.722656 226.039062 134.796875 226.351562 134.863281 C 226.953125 134.96875 227.605469 135.210938 228.25 135.402344 C 228.574219 135.519531 228.914062 135.589844 229.226562 135.730469 C 229.535156 135.867188 229.859375 136.003906 230.175781 136.136719 C 230.492188 136.28125 230.816406 136.394531 231.125 136.5625 C 231.429688 136.722656 231.734375 136.890625 232.046875 137.054688 C 232.351562 137.230469 232.675781 137.371094 232.96875 137.558594 C 233.261719 137.757812 233.558594 137.949219 233.851562 138.152344 C 234.140625 138.355469 234.457031 138.523438 234.726562 138.757812 L 235.554688 139.433594 C 236.128906 139.855469 236.632812 140.382812 237.152344 140.878906 C 237.703125 141.351562 238.125 141.941406 238.609375 142.480469 L 238.964844 142.898438 L 239.273438 143.34375 L 239.910156 144.226562 C 240.140625 144.515625 240.308594 144.835938 240.496094 145.152344 L 241.042969 146.097656 C 241.390625 146.738281 241.660156 147.425781 241.980469 148.078125 L 242.726562 150.132812 C 242.890625 150.851562 243.089844 151.542969 243.238281 152.261719 C 243.332031 152.984375 243.464844 153.703125 243.539062 154.421875 L 243.597656 155.515625 L 243.632812 156.058594 L 243.652344 156.308594 Z M 250.71875 156.316406 L 250.707031 155.957031 L 250.675781 155.234375 L 250.605469 153.78125 C 250.519531 152.808594 250.328125 151.847656 250.179688 150.886719 C 249.976562 149.933594 249.703125 148.996094 249.457031 148.050781 C 249.125 147.132812 248.796875 146.210938 248.429688 145.308594 C 247.988281 144.441406 247.589844 143.550781 247.101562 142.71875 L 246.335938 141.480469 C 246.078125 141.074219 245.832031 140.65625 245.523438 140.292969 L 244.644531 139.144531 L 244.195312 138.578125 L 243.707031 138.054688 C 243.035156 137.375 242.421875 136.644531 241.6875 136.054688 C 240.972656 135.4375 240.285156 134.796875 239.496094 134.289062 C 239.113281 134.019531 238.734375 133.753906 238.359375 133.492188 C 237.984375 133.226562 237.566406 133.023438 237.164062 132.789062 C 236.769531 132.566406 236.371094 132.34375 235.972656 132.121094 C 235.578125 131.898438 235.148438 131.738281 234.742188 131.550781 C 234.328125 131.367188 233.921875 131.1875 233.511719 131.015625 C 233.097656 130.847656 232.667969 130.734375 232.253906 130.589844 C 231.832031 130.453125 231.414062 130.324219 231 130.195312 C 230.585938 130.058594 230.152344 129.996094 229.734375 129.894531 C 228.890625 129.722656 228.082031 129.519531 227.183594 129.457031 C 226.75 129.414062 226.3125 129.371094 225.882812 129.328125 L 225.242188 129.273438 L 224.6875 129.273438 C 224.324219 129.277344 223.957031 129.277344 223.59375 129.285156 L 222.59375 129.285156 L 222.515625 129.292969 L 222.367188 129.304688 C 221.585938 129.375 220.824219 129.433594 220.078125 129.574219 C 219.324219 129.667969 218.601562 129.839844 217.894531 129.996094 C 217.191406 130.183594 216.503906 130.378906 215.84375 130.601562 C 213.207031 131.5 210.984375 132.734375 209.203125 134.042969 C 207.414062 135.347656 206.0625 136.71875 205.074219 137.90625 C 204.3125 138.816406 203.746094 139.648438 203.332031 140.292969 C 203.21875 140.25 203.097656 140.214844 202.976562 140.179688 C 202.792969 140.113281 202.609375 140.042969 202.421875 139.980469 C 202.046875 139.835938 201.671875 139.699219 201.289062 139.558594 C 199.769531 138.945312 198.207031 138.1875 196.617188 137.296875 C 193.417969 135.511719 190.09375 133.207031 186.421875 130.742188 C 184.570312 129.523438 182.640625 128.265625 180.558594 127.050781 C 178.480469 125.847656 176.25 124.695312 173.839844 123.714844 C 173.253906 123.449219 172.625 123.242188 172.003906 123.019531 C 171.390625 122.792969 170.75 122.601562 170.105469 122.417969 L 169.136719 122.132812 L 168.148438 121.898438 L 167.148438 121.664062 C 166.808594 121.59375 166.4375 121.539062 166.085938 121.476562 C 165.378906 121.363281 164.601562 121.222656 164.035156 121.183594 L 163.109375 121.101562 L 162.644531 121.054688 L 162.390625 121.035156 L 162.257812 121.03125 L 161.996094 121.023438 C 161.300781 121 160.601562 120.96875 159.898438 120.992188 L 158.851562 121.023438 L 157.800781 121.09375 C 156.394531 121.183594 154.996094 121.386719 153.601562 121.65625 C 152.222656 121.945312 150.84375 122.289062 149.5 122.734375 C 146.808594 123.617188 144.183594 124.777344 141.765625 126.277344 C 139.347656 127.765625 137.070312 129.5 135.046875 131.492188 C 133.035156 133.503906 131.253906 135.738281 129.773438 138.140625 C 128.300781 140.554688 127.183594 143.15625 126.394531 145.824219 C 125.59375 148.484375 125.199219 151.21875 125.164062 153.957031 L 125.164062 155.292969 L 125.167969 155.414062 L 125.1875 155.910156 C 125.222656 156.558594 125.246094 157.210938 125.324219 157.859375 L 125.433594 158.820312 L 125.582031 159.777344 L 125.738281 160.714844 L 125.933594 161.652344 C 126.46875 164.128906 127.257812 166.488281 128.269531 168.660156 C 130.269531 173.03125 133.078125 176.652344 136.117188 179.414062 C 137.640625 180.789062 139.207031 181.976562 140.777344 182.960938 C 142.351562 183.953125 143.90625 184.765625 145.425781 185.386719 C 146.171875 185.722656 146.925781 185.96875 147.636719 186.238281 C 148.367188 186.464844 149.058594 186.691406 149.746094 186.851562 C 150.085938 186.9375 150.421875 187.019531 150.746094 187.101562 C 151.074219 187.164062 151.398438 187.234375 151.707031 187.292969 C 152.335938 187.425781 152.945312 187.503906 153.511719 187.59375 C 153.910156 187.648438 154.296875 187.691406 154.660156 187.722656 C 154.671875 187.777344 154.679688 187.828125 154.691406 187.882812 C 154.933594 189.316406 155.121094 190.769531 155.226562 192.222656 C 155.34375 193.675781 155.375 195.132812 155.289062 196.59375 C 155.207031 198.050781 154.996094 199.503906 154.570312 200.914062 C 154.53125 201.039062 154.582031 201.171875 154.703125 201.238281 C 154.828125 201.308594 155 201.261719 155.066406 201.128906 C 155.808594 199.785156 156.347656 198.324219 156.757812 196.835938 C 157.167969 195.355469 157.453125 193.828125 157.660156 192.296875 C 157.839844 190.964844 157.960938 189.621094 158.027344 188.269531 C 158.039062 188.125 158.042969 187.984375 158.050781 187.84375 C 158.054688 187.789062 158.058594 187.726562 158.058594 187.671875 C 158.070312 187.363281 158.082031 187.046875 158.085938 186.738281 C 158.097656 186.273438 158.105469 185.8125 158.105469 185.347656 L 158.097656 184.570312 C 158.492188 184.347656 158.894531 184.128906 159.289062 183.910156 C 160.09375 183.5 160.890625 183.054688 161.714844 182.675781 C 162.527344 182.277344 163.347656 181.878906 164.179688 181.527344 C 164.195312 181.515625 164.21875 181.507812 164.238281 181.496094 C 165.046875 181.128906 165.871094 180.796875 166.695312 180.460938 C 167.539062 180.109375 168.394531 179.816406 169.25 179.492188 C 170.109375 179.207031 170.96875 178.890625 171.84375 178.632812 C 172.070312 178.554688 172.308594 178.488281 172.542969 178.421875 C 173.183594 178.226562 173.828125 178.046875 174.472656 177.871094 C 175.359375 177.632812 176.242188 177.414062 177.136719 177.210938 L 178.472656 176.921875 L 179.824219 176.660156 C 180.730469 176.503906 181.636719 176.347656 182.542969 176.230469 C 183.238281 176.132812 183.925781 176.050781 184.625 175.984375 C 185.757812 175.859375 186.890625 175.769531 188.027344 175.710938 C 189.519531 175.632812 191.015625 175.617188 192.511719 175.660156 C 193.304688 176.25 194.183594 176.804688 195.132812 177.292969 C 196.511719 178.019531 198.042969 178.640625 199.667969 179.117188 C 201.289062 179.609375 203.003906 179.957031 204.761719 180.171875 C 205.636719 180.28125 206.523438 180.34375 207.449219 180.394531 C 207.667969 180.402344 207.878906 180.40625 208.089844 180.410156 L 208.570312 180.421875 L 208.765625 180.421875 C 209.214844 180.414062 209.664062 180.417969 210.113281 180.394531 C 211.011719 180.375 211.910156 180.296875 212.800781 180.191406 C 213.691406 180.089844 214.578125 179.957031 215.449219 179.769531 C 216.316406 179.59375 217.175781 179.378906 218.019531 179.128906 C 218.445312 178.992188 218.871094 178.859375 219.292969 178.710938 C 219.25 179.035156 219.210938 179.351562 219.175781 179.671875 C 219.132812 180.09375 219.085938 180.507812 219.054688 180.925781 C 219.03125 181.199219 219.007812 181.472656 218.996094 181.734375 C 218.859375 183.695312 218.851562 185.667969 218.996094 187.625 C 219.042969 188.179688 219.085938 188.734375 219.164062 189.292969 C 219.222656 189.847656 219.320312 190.398438 219.414062 190.949219 C 219.523438 191.496094 219.617188 192.046875 219.761719 192.585938 C 219.886719 193.128906 220.054688 193.664062 220.207031 194.195312 C 220.394531 194.726562 220.5625 195.253906 220.777344 195.765625 C 220.976562 196.285156 221.226562 196.785156 221.460938 197.285156 C 221.726562 197.769531 221.972656 198.261719 222.277344 198.726562 C 222.554688 199.199219 222.894531 199.640625 223.210938 200.078125 C 223.285156 200.1875 223.425781 200.226562 223.550781 200.167969 C 223.6875 200.101562 223.742188 199.9375 223.675781 199.808594 L 223.664062 199.785156 C 223.433594 199.304688 223.179688 198.839844 222.988281 198.355469 C 222.773438 197.871094 222.613281 197.375 222.441406 196.882812 C 222.304688 196.375 222.144531 195.878906 222.042969 195.367188 C 221.917969 194.863281 221.839844 194.34375 221.75 193.832031 C 221.691406 193.316406 221.613281 192.804688 221.578125 192.285156 C 221.53125 191.773438 221.519531 191.253906 221.5 190.734375 C 221.5 190.21875 221.492188 189.699219 221.519531 189.179688 C 221.53125 188.664062 221.574219 188.144531 221.613281 187.628906 C 221.765625 185.871094 222.054688 184.117188 222.453125 182.398438 C 222.480469 182.398438 222.515625 182.398438 222.546875 182.410156 C 223.066406 182.441406 223.605469 182.472656 224.167969 182.507812 C 225.285156 182.597656 226.46875 182.488281 227.734375 182.410156 C 228.359375 182.347656 228.996094 182.214844 229.65625 182.105469 C 229.984375 182.046875 230.320312 182 230.660156 181.925781 C 230.988281 181.835938 231.316406 181.734375 231.65625 181.644531 C 234.355469 180.90625 237.226562 179.648438 239.859375 177.695312 C 242.507812 175.769531 244.953125 173.199219 246.835938 170.101562 C 247.101562 169.722656 247.300781 169.316406 247.511719 168.90625 C 247.722656 168.5 247.933594 168.089844 248.144531 167.683594 C 248.367188 167.273438 248.527344 166.835938 248.703125 166.40625 C 248.871094 165.972656 249.039062 165.535156 249.207031 165.101562 C 249.390625 164.667969 249.492188 164.199219 249.625 163.75 C 249.753906 163.292969 249.871094 162.835938 250 162.378906 C 250.136719 161.9375 250.191406 161.402344 250.285156 160.914062 C 250.371094 160.410156 250.453125 159.90625 250.527344 159.40625 L 250.574219 159.027344 L 250.589844 158.710938 L 250.628906 158.078125 L 250.699219 156.816406 L 250.710938 156.65625 L 250.710938 156.582031 L 250.722656 156.367188 L 250.71875 156.316406 " fill-opacity="1" fill-rule="nonzero"/><g clip-path="url(#c4d6c309fb)"><path fill="#c90c0f" d="M 274.644531 108.148438 L 274.425781 107.914062 C 273.816406 107.257812 272.800781 107.214844 272.136719 107.816406 L 243.554688 133.730469 C 243.570312 133.742188 243.585938 133.753906 243.597656 133.765625 C 244.257812 134.304688 244.804688 134.886719 245.292969 135.398438 C 245.476562 135.597656 245.652344 135.785156 245.828125 135.960938 L 245.859375 135.992188 L 245.890625 136.027344 L 246.378906 136.550781 L 246.460938 136.636719 L 246.53125 136.726562 L 246.90625 137.199219 C 259.910156 127.347656 271.421875 114.183594 274.695312 110.3125 C 275.230469 109.683594 275.207031 108.753906 274.644531 108.148438 Z M 268.925781 102 C 268.621094 101.675781 268.214844 101.5 267.796875 101.484375 C 267.382812 101.464844 266.964844 101.605469 266.632812 101.90625 L 236.617188 129.121094 C 236.867188 129.230469 237.136719 129.363281 237.429688 129.519531 L 237.789062 129.722656 C 238.066406 129.878906 238.347656 130.035156 238.628906 130.195312 L 238.652344 130.207031 L 238.675781 130.222656 C 238.773438 130.277344 238.886719 130.339844 239.007812 130.40625 C 239.328125 130.585938 239.695312 130.785156 240.078125 131.054688 C 240.226562 131.160156 240.375 131.261719 240.523438 131.367188 L 268.855469 104.292969 C 269.503906 103.675781 269.53125 102.65625 268.925781 102 Z M 263.421875 96.089844 C 263.117188 95.765625 262.710938 95.589844 262.296875 95.574219 C 261.882812 95.554688 261.460938 95.691406 261.132812 95.996094 L 230.398438 123.859375 C 230.019531 124.203125 229.542969 124.363281 229.070312 124.335938 C 228.601562 124.320312 228.132812 124.121094 227.785156 123.746094 C 227.089844 123.003906 227.121094 121.835938 227.859375 121.128906 L 257.851562 92.472656 C 258.5 91.855469 258.527344 90.832031 257.917969 90.179688 L 257.703125 89.945312 C 257.140625 89.339844 256.210938 89.25 255.546875 89.738281 C 250.226562 93.625 228.261719 110.253906 218.289062 126.855469 C 218.710938 126.769531 219.15625 126.691406 219.617188 126.628906 C 220.394531 126.488281 221.140625 126.421875 221.863281 126.359375 L 222.101562 126.339844 L 222.125 126.335938 L 222.144531 126.335938 L 222.261719 126.324219 L 222.308594 126.320312 L 222.453125 126.304688 L 223.015625 126.304688 L 223.035156 126.300781 L 223.566406 126.300781 C 223.8125 126.296875 224.054688 126.296875 224.300781 126.292969 C 224.421875 126.292969 224.539062 126.292969 224.65625 126.292969 L 225.367188 126.292969 L 225.496094 126.300781 L 226.136719 126.359375 L 226.160156 126.359375 L 226.1875 126.363281 C 226.597656 126.40625 227.015625 126.449219 227.425781 126.484375 C 228.351562 126.550781 229.160156 126.722656 229.875 126.878906 C 230.027344 126.910156 230.179688 126.941406 230.332031 126.972656 L 230.386719 126.984375 L 230.445312 127 C 230.546875 127.023438 230.667969 127.050781 230.796875 127.074219 C 231.109375 127.140625 231.492188 127.222656 231.902344 127.351562 C 232.210938 127.449219 232.535156 127.554688 232.925781 127.675781 C 233.023438 127.445312 233.167969 127.226562 233.363281 127.042969 L 263.355469 98.382812 C 264 97.765625 264.03125 96.746094 263.421875 96.089844 Z M 156.925781 208.429688 L 156.914062 208.425781 L 156.902344 208.417969 C 156.652344 208.292969 156.417969 208.164062 156.199219 208.035156 L 156.125 208.125 C 155.917969 208.375 155.722656 208.625 155.527344 208.875 C 154.75 209.878906 153.988281 210.90625 153.246094 211.921875 C 152.507812 212.933594 151.777344 213.941406 151.046875 214.925781 C 150.6875 215.417969 150.316406 215.898438 149.953125 216.375 C 149.582031 216.847656 149.214844 217.3125 148.835938 217.761719 C 148.460938 218.214844 148.074219 218.648438 147.695312 219.078125 C 147.308594 219.496094 146.929688 219.914062 146.535156 220.308594 C 146.152344 220.707031 145.746094 221.074219 145.359375 221.445312 C 144.957031 221.808594 144.554688 222.144531 144.15625 222.46875 C 142.546875 223.75 140.984375 224.804688 139.492188 225.566406 C 138.75 225.953125 138.027344 226.265625 137.335938 226.5 C 136.644531 226.734375 135.984375 226.875 135.375 226.929688 C 134.769531 226.980469 134.214844 226.9375 133.757812 226.804688 C 133.296875 226.679688 132.941406 226.480469 132.6875 226.285156 C 132.425781 226.097656 132.261719 225.910156 132.15625 225.785156 C 132.066406 225.675781 132.015625 225.609375 132.003906 225.597656 C 132.015625 225.605469 132.078125 225.667969 132.179688 225.765625 C 132.300781 225.875 132.484375 226.03125 132.753906 226.1875 C 133.019531 226.34375 133.375 226.488281 133.8125 226.558594 C 134.246094 226.628906 134.761719 226.621094 135.320312 226.519531 C 135.878906 226.417969 136.484375 226.214844 137.121094 225.9375 C 137.753906 225.660156 138.417969 225.304688 139.101562 224.878906 C 140.460938 224.015625 141.921875 222.914062 143.390625 221.574219 C 144.847656 220.238281 146.285156 218.648438 147.65625 216.824219 C 149.039062 215.007812 150.402344 213.003906 151.832031 210.917969 C 152.71875 209.617188 153.675781 208.289062 154.695312 206.992188 C 154.488281 206.8125 154.296875 206.628906 154.117188 206.433594 L 154.039062 206.351562 L 153.980469 206.277344 L 153.953125 206.246094 C 153.824219 206.101562 153.59375 205.839844 153.382812 205.464844 L 153.28125 205.292969 L 153.191406 205.140625 L 153.113281 204.976562 C 153.027344 204.773438 152.964844 204.59375 152.929688 204.480469 C 152.789062 204.085938 152.738281 203.746094 152.71875 203.472656 C 151.910156 202.785156 151.488281 201.753906 151.589844 200.699219 L 151.589844 200.472656 L 151.714844 200.050781 C 152.042969 198.972656 152.238281 197.785156 152.3125 196.429688 L 152.3125 196.414062 C 152.316406 196.390625 152.316406 196.363281 152.316406 196.339844 C 149.695312 198.300781 147.328125 199.933594 145.316406 201.144531 C 136.269531 206.59375 131.230469 211.648438 128.425781 215.453125 C 125.914062 218.867188 126.167969 223.578125 129.058594 226.679688 C 130.5 228.230469 132.398438 229.15625 134.371094 229.402344 C 136.351562 229.660156 138.417969 229.242188 140.210938 228.113281 C 144.207031 225.589844 149.609375 220.917969 155.6875 212.289062 C 156.398438 211.28125 157.234375 210.183594 158.175781 209.007812 C 157.734375 208.820312 157.320312 208.625 156.925781 208.429688 " fill-opacity="1" fill-rule="nonzero"/></g><g clip-path="url(#681db50edc)"><path fill="#c90c0f" d="M 247.285156 215.136719 C 244.421875 211.246094 239.261719 206.070312 230.011719 200.5 C 228.8125 199.777344 227.488281 198.90625 226.0625 197.910156 C 226.082031 197.949219 226.101562 197.992188 226.121094 198.03125 C 226.195312 198.179688 226.269531 198.324219 226.34375 198.476562 C 226.722656 199.238281 226.789062 200.136719 226.519531 200.949219 C 226.414062 201.253906 226.269531 201.539062 226.085938 201.796875 C 226.109375 201.910156 226.125 202.011719 226.140625 202.117188 C 226.160156 202.234375 226.175781 202.351562 226.183594 202.476562 C 226.1875 202.519531 226.191406 202.570312 226.195312 202.628906 C 226.210938 202.859375 226.214844 202.988281 226.210938 203.132812 L 226.132812 206.074219 L 225.417969 206.066406 C 225.414062 206.074219 225.40625 206.085938 225.402344 206.097656 L 225.394531 206.113281 C 225.132812 206.589844 224.859375 206.929688 224.679688 207.15625 L 224.617188 207.242188 L 224.546875 207.316406 L 224.484375 207.382812 C 224.332031 207.558594 224.125 207.785156 223.871094 208.003906 C 223.507812 208.332031 223.113281 208.632812 222.671875 208.917969 C 222.542969 209.003906 222.414062 209.085938 222.277344 209.164062 C 222.503906 209.480469 222.722656 209.796875 222.933594 210.113281 C 224.398438 212.253906 225.796875 214.300781 227.203125 216.15625 C 228.605469 218.019531 230.078125 219.648438 231.570312 221.015625 C 233.070312 222.382812 234.5625 223.515625 235.957031 224.394531 C 236.65625 224.832031 237.332031 225.195312 237.980469 225.476562 C 238.628906 225.761719 239.25 225.96875 239.824219 226.070312 C 240.394531 226.179688 240.917969 226.183594 241.363281 226.113281 C 241.8125 226.042969 242.175781 225.894531 242.449219 225.734375 C 242.722656 225.574219 242.910156 225.410156 243.035156 225.300781 C 243.152344 225.183594 243.214844 225.125 243.214844 225.125 C 243.214844 225.125 243.160156 225.191406 243.058594 225.324219 C 242.949219 225.453125 242.78125 225.640625 242.515625 225.835938 C 242.253906 226.035156 241.890625 226.238281 241.421875 226.371094 C 240.953125 226.503906 240.386719 226.542969 239.765625 226.492188 C 239.144531 226.4375 238.46875 226.289062 237.761719 226.054688 C 237.050781 225.8125 236.316406 225.492188 235.554688 225.097656 C 234.03125 224.316406 232.429688 223.238281 230.789062 221.929688 C 230.378906 221.601562 229.964844 221.257812 229.554688 220.882812 C 229.160156 220.503906 228.742188 220.128906 228.351562 219.71875 C 227.945312 219.320312 227.558594 218.890625 227.160156 218.460938 C 226.777344 218.019531 226.382812 217.578125 226 217.117188 C 225.613281 216.65625 225.234375 216.183594 224.855469 215.699219 C 224.484375 215.210938 224.105469 214.71875 223.734375 214.21875 C 222.992188 213.210938 222.246094 212.179688 221.488281 211.140625 C 221.210938 210.761719 220.929688 210.382812 220.648438 210 C 220.097656 210.242188 219.535156 210.460938 218.917969 210.671875 C 218.820312 210.707031 218.710938 210.742188 218.597656 210.78125 C 218.882812 211.164062 219.152344 211.535156 219.40625 211.894531 C 225.621094 220.722656 231.152344 225.5 235.238281 228.082031 C 237.070312 229.234375 239.179688 229.664062 241.207031 229.402344 C 243.230469 229.148438 245.164062 228.203125 246.644531 226.617188 C 249.597656 223.441406 249.855469 218.625 247.285156 215.136719 Z M 122.703125 135.832031 C 122.40625 135.65625 121.96875 135.410156 121.433594 135.0625 C 120.894531 134.71875 120.242188 134.300781 119.515625 133.785156 C 119.152344 133.527344 118.769531 133.25 118.371094 132.953125 C 118.265625 132.878906 118.167969 132.800781 118.0625 132.726562 C 117.964844 132.644531 117.859375 132.566406 117.753906 132.480469 C 117.546875 132.320312 117.339844 132.15625 117.125 131.988281 C 116.910156 131.816406 116.695312 131.644531 116.472656 131.464844 C 116.257812 131.28125 116.03125 131.089844 115.804688 130.898438 C 115.578125 130.703125 115.351562 130.503906 115.113281 130.304688 C 114.890625 130.09375 114.660156 129.882812 114.425781 129.667969 C 114.195312 129.453125 113.960938 129.238281 113.726562 129.011719 C 113.496094 128.777344 113.265625 128.546875 113.03125 128.3125 C 112.550781 127.847656 112.105469 127.332031 111.636719 126.820312 C 111.398438 126.570312 111.179688 126.292969 110.953125 126.027344 C 110.730469 125.753906 110.492188 125.484375 110.277344 125.199219 C 110.058594 124.914062 109.835938 124.632812 109.617188 124.34375 C 109.398438 124.054688 109.195312 123.75 108.984375 123.449219 C 108.148438 122.246094 107.375 120.964844 106.710938 119.617188 C 106.054688 118.269531 105.492188 116.863281 105.085938 115.433594 C 104.972656 115.078125 104.890625 114.714844 104.800781 114.359375 L 104.738281 114.089844 L 104.722656 114.023438 L 104.710938 113.964844 L 104.703125 113.933594 L 104.679688 113.800781 C 104.648438 113.628906 104.613281 113.457031 104.582031 113.285156 C 104.550781 113.109375 104.515625 112.953125 104.492188 112.761719 C 104.464844 112.574219 104.441406 112.390625 104.417969 112.210938 C 104.394531 112.023438 104.367188 111.839844 104.351562 111.660156 C 104.34375 111.480469 104.328125 111.300781 104.316406 111.125 C 104.222656 109.710938 104.289062 108.332031 104.46875 107.050781 C 104.648438 105.765625 104.96875 104.582031 105.328125 103.527344 C 105.679688 102.460938 106.125 101.535156 106.539062 100.734375 C 106.648438 100.539062 106.757812 100.347656 106.863281 100.164062 C 106.964844 99.980469 107.066406 99.808594 107.175781 99.644531 C 107.394531 99.320312 107.574219 99.015625 107.765625 98.757812 C 107.957031 98.5 108.125 98.265625 108.277344 98.070312 C 108.433594 97.875 108.574219 97.714844 108.679688 97.585938 C 108.882812 97.347656 109 97.210938 109.019531 97.1875 C 109.011719 97.203125 108.929688 97.367188 108.78125 97.652344 C 108.703125 97.804688 108.601562 97.988281 108.492188 98.203125 C 108.390625 98.429688 108.265625 98.683594 108.125 98.96875 C 107.863281 99.539062 107.574219 100.246094 107.28125 101.0625 C 107.003906 101.886719 106.703125 102.816406 106.496094 103.851562 C 106.46875 103.980469 106.4375 104.109375 106.410156 104.242188 C 106.390625 104.375 106.363281 104.507812 106.339844 104.644531 C 106.296875 104.917969 106.234375 105.1875 106.210938 105.46875 C 106.175781 105.75 106.140625 106.035156 106.105469 106.324219 C 106.082031 106.617188 106.0625 106.910156 106.039062 107.207031 C 105.976562 108.40625 106.007812 109.667969 106.167969 110.953125 C 106.1875 111.113281 106.207031 111.273438 106.226562 111.4375 C 106.25 111.597656 106.28125 111.75 106.3125 111.910156 C 106.335938 112.066406 106.363281 112.222656 106.390625 112.382812 C 106.402344 112.460938 106.421875 112.542969 106.441406 112.628906 L 106.5 112.886719 C 106.539062 113.054688 106.582031 113.226562 106.621094 113.394531 L 106.648438 113.527344 L 106.65625 113.558594 L 106.660156 113.566406 L 106.660156 113.578125 L 106.675781 113.625 L 106.746094 113.867188 C 106.835938 114.191406 106.917969 114.523438 107.03125 114.84375 C 107.449219 116.148438 107.96875 117.4375 108.589844 118.691406 C 109.195312 119.949219 109.917969 121.15625 110.671875 122.320312 C 110.863281 122.609375 111.046875 122.898438 111.242188 123.179688 C 111.441406 123.460938 111.640625 123.742188 111.835938 124.019531 C 112.027344 124.304688 112.242188 124.566406 112.445312 124.835938 C 112.652344 125.097656 112.84375 125.375 113.054688 125.632812 C 113.476562 126.148438 113.882812 126.664062 114.304688 127.148438 C 114.511719 127.390625 114.71875 127.632812 114.921875 127.875 C 115.132812 128.105469 115.339844 128.339844 115.546875 128.566406 C 115.753906 128.792969 115.957031 129.019531 116.15625 129.242188 C 116.359375 129.457031 116.5625 129.667969 116.761719 129.878906 C 116.957031 130.085938 117.152344 130.292969 117.34375 130.496094 C 117.542969 130.699219 117.738281 130.894531 117.929688 131.085938 C 118.121094 131.28125 118.308594 131.46875 118.492188 131.65625 C 118.582031 131.746094 118.667969 131.835938 118.757812 131.921875 C 118.847656 132.011719 118.9375 132.097656 119.027344 132.1875 C 119.378906 132.53125 119.710938 132.855469 120.027344 133.160156 C 120.664062 133.773438 121.222656 134.304688 121.6875 134.734375 C 122.625 135.597656 123.15625 136.089844 123.15625 136.089844 C 123.15625 136.089844 122.996094 136.003906 122.703125 135.832031 Z M 144.066406 101 C 136.710938 93.652344 130.148438 90.574219 124.710938 89.683594 C 121.324219 89.132812 117.917969 89.472656 114.773438 90.585938 C 111.625 91.695312 108.742188 93.566406 106.40625 96.078125 C 101.734375 101.097656 99.753906 108.117188 101.339844 114.792969 C 102.617188 120.152344 106.15625 126.480469 114.011719 133.289062 C 117.777344 136.554688 121.453125 139.078125 124.957031 141.019531 C 125.613281 139.472656 126.375 137.992188 127.230469 136.589844 L 127.238281 136.582031 C 128.824219 133.996094 130.746094 131.578125 132.941406 129.386719 L 132.953125 129.371094 C 135.0625 127.296875 137.496094 125.402344 140.199219 123.742188 C 142.683594 122.203125 145.496094 120.910156 148.566406 119.90625 C 149.855469 119.476562 151.261719 119.105469 152.984375 118.738281 L 153.011719 118.734375 L 153.039062 118.726562 C 154.207031 118.503906 155.300781 118.335938 156.347656 118.226562 C 153.914062 112.878906 150.066406 107 144.066406 101 " fill-opacity="1" fill-rule="nonzero"/></g><g fill="#0071bc" fill-opacity="0.4"><g transform="translate(55.432955, 267.274758)"><g><path d="M 19 -9.40625 L 13.546875 -9.40625 L 13.546875 0 L 3.53125 0 L 3.53125 -35.390625 L 19.71875 -35.390625 C 22.914062 -35.390625 25.691406 -34.859375 28.046875 -33.796875 C 30.410156 -32.734375 32.234375 -31.210938 33.515625 -29.234375 C 34.796875 -27.265625 35.4375 -24.953125 35.4375 -22.296875 C 35.4375 -19.734375 34.835938 -17.5 33.640625 -15.59375 C 32.441406 -13.6875 30.734375 -12.195312 28.515625 -11.125 L 36.140625 0 L 25.421875 0 Z M 25.328125 -22.296875 C 25.328125 -23.941406 24.800781 -25.21875 23.75 -26.125 C 22.707031 -27.039062 21.160156 -27.5 19.109375 -27.5 L 13.546875 -27.5 L 13.546875 -17.140625 L 19.109375 -17.140625 C 21.160156 -17.140625 22.707031 -17.582031 23.75 -18.46875 C 24.800781 -19.363281 25.328125 -20.640625 25.328125 -22.296875 Z M 25.328125 -22.296875 "/></g></g></g><g fill="#0071bc" fill-opacity="0.4"><g transform="translate(90.349415, 267.274758)"><g><path d="M 31.09375 -13.640625 C 31.09375 -13.578125 31.039062 -12.785156 30.9375 -11.265625 L 11.015625 -11.265625 C 11.421875 -9.859375 12.203125 -8.773438 13.359375 -8.015625 C 14.523438 -7.253906 15.984375 -6.875 17.734375 -6.875 C 19.054688 -6.875 20.195312 -7.054688 21.15625 -7.421875 C 22.113281 -7.796875 23.082031 -8.40625 24.0625 -9.25 L 29.109375 -4 C 26.453125 -1.03125 22.5625 0.453125 17.4375 0.453125 C 14.238281 0.453125 11.425781 -0.148438 9 -1.359375 C 6.570312 -2.578125 4.691406 -4.265625 3.359375 -6.421875 C 2.023438 -8.578125 1.359375 -11.019531 1.359375 -13.75 C 1.359375 -16.445312 2.003906 -18.863281 3.296875 -21 C 4.597656 -23.144531 6.394531 -24.820312 8.6875 -26.03125 C 10.976562 -27.238281 13.554688 -27.84375 16.421875 -27.84375 C 19.148438 -27.84375 21.625 -27.28125 23.84375 -26.15625 C 26.070312 -25.03125 27.835938 -23.394531 29.140625 -21.25 C 30.441406 -19.113281 31.09375 -16.578125 31.09375 -13.640625 Z M 16.484375 -21.03125 C 14.992188 -21.03125 13.75 -20.609375 12.75 -19.765625 C 11.757812 -18.921875 11.132812 -17.773438 10.875 -16.328125 L 22.09375 -16.328125 C 21.820312 -17.773438 21.1875 -18.921875 20.1875 -19.765625 C 19.195312 -20.609375 17.960938 -21.03125 16.484375 -21.03125 Z M 16.484375 -21.03125 "/></g></g></g><g fill="#0071bc" fill-opacity="0.4"><g transform="translate(120.313821, 267.274758)"><g><path d="M 13.046875 0.453125 C 10.753906 0.453125 8.492188 0.191406 6.265625 -0.328125 C 4.046875 -0.847656 2.257812 -1.53125 0.90625 -2.375 L 3.796875 -8.953125 C 5.035156 -8.171875 6.515625 -7.550781 8.234375 -7.09375 C 9.953125 -6.644531 11.65625 -6.421875 13.34375 -6.421875 C 14.894531 -6.421875 16 -6.578125 16.65625 -6.890625 C 17.3125 -7.210938 17.640625 -7.679688 17.640625 -8.296875 C 17.640625 -8.898438 17.242188 -9.328125 16.453125 -9.578125 C 15.660156 -9.828125 14.40625 -10.070312 12.6875 -10.3125 C 10.5 -10.582031 8.632812 -10.9375 7.09375 -11.375 C 5.5625 -11.8125 4.238281 -12.617188 3.125 -13.796875 C 2.019531 -14.972656 1.46875 -16.625 1.46875 -18.75 C 1.46875 -20.5 1.988281 -22.054688 3.03125 -23.421875 C 4.070312 -24.785156 5.59375 -25.863281 7.59375 -26.65625 C 9.601562 -27.445312 12.007812 -27.84375 14.8125 -27.84375 C 16.800781 -27.84375 18.769531 -27.640625 20.71875 -27.234375 C 22.675781 -26.835938 24.3125 -26.269531 25.625 -25.53125 L 22.75 -19 C 20.320312 -20.351562 17.691406 -21.03125 14.859375 -21.03125 C 13.347656 -21.03125 12.238281 -20.851562 11.53125 -20.5 C 10.820312 -20.144531 10.46875 -19.679688 10.46875 -19.109375 C 10.46875 -18.460938 10.851562 -18.015625 11.625 -17.765625 C 12.394531 -17.515625 13.675781 -17.253906 15.46875 -16.984375 C 17.726562 -16.648438 19.597656 -16.265625 21.078125 -15.828125 C 22.554688 -15.390625 23.84375 -14.585938 24.9375 -13.421875 C 26.039062 -12.253906 26.59375 -10.628906 26.59375 -8.546875 C 26.59375 -6.828125 26.066406 -5.285156 25.015625 -3.921875 C 23.972656 -2.554688 22.429688 -1.484375 20.390625 -0.703125 C 18.359375 0.0664062 15.910156 0.453125 13.046875 0.453125 Z M 13.046875 0.453125 "/></g></g></g><g fill="#0071bc" fill-opacity="0.4"><g transform="translate(145.477764, 267.274758)"><g><path d="M 21.984375 -1.109375 C 21.179688 -0.609375 20.195312 -0.222656 19.03125 0.046875 C 17.863281 0.316406 16.625 0.453125 15.3125 0.453125 C 11.738281 0.453125 8.992188 -0.421875 7.078125 -2.171875 C 5.160156 -3.921875 4.203125 -6.535156 4.203125 -10.015625 L 4.203125 -19.203125 L 0.203125 -19.203125 L 0.203125 -26.390625 L 4.203125 -26.390625 L 4.203125 -33.515625 L 13.796875 -33.515625 L 13.796875 -26.390625 L 20.0625 -26.390625 L 20.0625 -19.203125 L 13.796875 -19.203125 L 13.796875 -10.109375 C 13.796875 -9.128906 14.054688 -8.359375 14.578125 -7.796875 C 15.097656 -7.242188 15.800781 -6.96875 16.6875 -6.96875 C 17.789062 -6.96875 18.765625 -7.253906 19.609375 -7.828125 Z M 21.984375 -1.109375 "/></g></g></g><g fill="#0071bc" fill-opacity="0.4"><g transform="translate(165.588591, 267.274758)"><g><path d="M 16.828125 0.453125 C 13.898438 0.453125 11.253906 -0.148438 8.890625 -1.359375 C 6.535156 -2.578125 4.691406 -4.265625 3.359375 -6.421875 C 2.023438 -8.578125 1.359375 -11.019531 1.359375 -13.75 C 1.359375 -16.445312 2.023438 -18.875 3.359375 -21.03125 C 4.691406 -23.1875 6.53125 -24.859375 8.875 -26.046875 C 11.21875 -27.242188 13.867188 -27.84375 16.828125 -27.84375 C 19.796875 -27.84375 22.457031 -27.242188 24.8125 -26.046875 C 27.175781 -24.859375 29.015625 -23.191406 30.328125 -21.046875 C 31.640625 -18.910156 32.296875 -16.476562 32.296875 -13.75 C 32.296875 -11.019531 31.640625 -8.578125 30.328125 -6.421875 C 29.015625 -4.265625 27.175781 -2.578125 24.8125 -1.359375 C 22.457031 -0.148438 19.796875 0.453125 16.828125 0.453125 Z M 16.828125 -7.171875 C 18.515625 -7.171875 19.894531 -7.753906 20.96875 -8.921875 C 22.050781 -10.085938 22.59375 -11.695312 22.59375 -13.75 C 22.59375 -15.769531 22.050781 -17.351562 20.96875 -18.5 C 19.894531 -19.644531 18.515625 -20.21875 16.828125 -20.21875 C 15.148438 -20.21875 13.769531 -19.644531 12.6875 -18.5 C 11.601562 -17.351562 11.0625 -15.769531 11.0625 -13.75 C 11.0625 -11.695312 11.601562 -10.085938 12.6875 -8.921875 C 13.769531 -7.753906 15.148438 -7.171875 16.828125 -7.171875 Z M 16.828125 -7.171875 "/></g></g></g><g fill="#0071bc" fill-opacity="0.4"><g transform="translate(196.765752, 267.274758)"><g><path d="M 13.546875 -27.65625 L 13.546875 -19.859375 L 29.171875 -19.859375 L 29.171875 -12.125 L 13.546875 -12.125 L 13.546875 0 L 3.53125 0 L 3.53125 -35.390625 L 31.28125 -35.390625 L 31.28125 -27.65625 Z M 13.546875 -27.65625 "/></g></g></g><g fill="#0071bc" fill-opacity="0.4"><g transform="translate(226.730159, 267.274758)"><g><path d="M 3.078125 -37.5 L 12.6875 -37.5 L 12.6875 0 L 3.078125 0 Z M 3.078125 -37.5 "/></g></g></g><g fill="#0071bc" fill-opacity="0.4"><g transform="translate(240.069803, 267.274758)"><g><path d="M 16.828125 0.453125 C 13.898438 0.453125 11.253906 -0.148438 8.890625 -1.359375 C 6.535156 -2.578125 4.691406 -4.265625 3.359375 -6.421875 C 2.023438 -8.578125 1.359375 -11.019531 1.359375 -13.75 C 1.359375 -16.445312 2.023438 -18.875 3.359375 -21.03125 C 4.691406 -23.1875 6.53125 -24.859375 8.875 -26.046875 C 11.21875 -27.242188 13.867188 -27.84375 16.828125 -27.84375 C 19.796875 -27.84375 22.457031 -27.242188 24.8125 -26.046875 C 27.175781 -24.859375 29.015625 -23.191406 30.328125 -21.046875 C 31.640625 -18.910156 32.296875 -16.476562 32.296875 -13.75 C 32.296875 -11.019531 31.640625 -8.578125 30.328125 -6.421875 C 29.015625 -4.265625 27.175781 -2.578125 24.8125 -1.359375 C 22.457031 -0.148438 19.796875 0.453125 16.828125 0.453125 Z M 16.828125 -7.171875 C 18.515625 -7.171875 19.894531 -7.753906 20.96875 -8.921875 C 22.050781 -10.085938 22.59375 -11.695312 22.59375 -13.75 C 22.59375 -15.769531 22.050781 -17.351562 20.96875 -18.5 C 19.894531 -19.644531 18.515625 -20.21875 16.828125 -20.21875 C 15.148438 -20.21875 13.769531 -19.644531 12.6875 -18.5 C 11.601562 -17.351562 11.0625 -15.769531 11.0625 -13.75 C 11.0625 -11.695312 11.601562 -10.085938 12.6875 -8.921875 C 13.769531 -7.753906 15.148438 -7.171875 16.828125 -7.171875 Z M 16.828125 -7.171875 "/></g></g></g><g fill="#0071bc" fill-opacity="0.4"><g transform="translate(271.246952, 267.274758)"><g><path d="M 48.46875 -27.390625 L 38.71875 0 L 29.421875 0 L 24.265625 -14.90625 L 18.90625 0 L 9.609375 0 L -0.15625 -27.390625 L 8.953125 -27.390625 L 14.5625 -10.8125 L 20.375 -27.390625 L 28.5625 -27.390625 L 34.21875 -10.671875 L 40.03125 -27.390625 Z M 48.46875 -27.390625 "/></g></g></g><g fill="#c90c0f" fill-opacity="1"><g transform="translate(55.432955, 267.274758)"><g><path d="M 19 -9.40625 L 13.546875 -9.40625 L 13.546875 0 L 3.53125 0 L 3.53125 -35.390625 L 19.71875 -35.390625 C 22.914062 -35.390625 25.691406 -34.859375 28.046875 -33.796875 C 30.410156 -32.734375 32.234375 -31.210938 33.515625 -29.234375 C 34.796875 -27.265625 35.4375 -24.953125 35.4375 -22.296875 C 35.4375 -19.734375 34.835938 -17.5 33.640625 -15.59375 C 32.441406 -13.6875 30.734375 -12.195312 28.515625 -11.125 L 36.140625 0 L 25.421875 0 Z M 25.328125 -22.296875 C 25.328125 -23.941406 24.800781 -25.21875 23.75 -26.125 C 22.707031 -27.039062 21.160156 -27.5 19.109375 -27.5 L 13.546875 -27.5 L 13.546875 -17.140625 L 19.109375 -17.140625 C 21.160156 -17.140625 22.707031 -17.582031 23.75 -18.46875 C 24.800781 -19.363281 25.328125 -20.640625 25.328125 -22.296875 Z M 25.328125 -22.296875 "/></g></g></g><g fill="#c90c0f" fill-opacity="1"><g transform="translate(90.349415, 267.274758)"><g><path d="M 31.09375 -13.640625 C 31.09375 -13.578125 31.039062 -12.785156 30.9375 -11.265625 L 11.015625 -11.265625 C 11.421875 -9.859375 12.203125 -8.773438 13.359375 -8.015625 C 14.523438 -7.253906 15.984375 -6.875 17.734375 -6.875 C 19.054688 -6.875 20.195312 -7.054688 21.15625 -7.421875 C 22.113281 -7.796875 23.082031 -8.40625 24.0625 -9.25 L 29.109375 -4 C 26.453125 -1.03125 22.5625 0.453125 17.4375 0.453125 C 14.238281 0.453125 11.425781 -0.148438 9 -1.359375 C 6.570312 -2.578125 4.691406 -4.265625 3.359375 -6.421875 C 2.023438 -8.578125 1.359375 -11.019531 1.359375 -13.75 C 1.359375 -16.445312 2.003906 -18.863281 3.296875 -21 C 4.597656 -23.144531 6.394531 -24.820312 8.6875 -26.03125 C 10.976562 -27.238281 13.554688 -27.84375 16.421875 -27.84375 C 19.148438 -27.84375 21.625 -27.28125 23.84375 -26.15625 C 26.070312 -25.03125 27.835938 -23.394531 29.140625 -21.25 C 30.441406 -19.113281 31.09375 -16.578125 31.09375 -13.640625 Z M 16.484375 -21.03125 C 14.992188 -21.03125 13.75 -20.609375 12.75 -19.765625 C 11.757812 -18.921875 11.132812 -17.773438 10.875 -16.328125 L 22.09375 -16.328125 C 21.820312 -17.773438 21.1875 -18.921875 20.1875 -19.765625 C 19.195312 -20.609375 17.960938 -21.03125 16.484375 -21.03125 Z M 16.484375 -21.03125 "/></g></g></g><g fill="#c90c0f" fill-opacity="1"><g transform="translate(120.313821, 267.274758)"><g><path d="M 13.046875 0.453125 C 10.753906 0.453125 8.492188 0.191406 6.265625 -0.328125 C 4.046875 -0.847656 2.257812 -1.53125 0.90625 -2.375 L 3.796875 -8.953125 C 5.035156 -8.171875 6.515625 -7.550781 8.234375 -7.09375 C 9.953125 -6.644531 11.65625 -6.421875 13.34375 -6.421875 C 14.894531 -6.421875 16 -6.578125 16.65625 -6.890625 C 17.3125 -7.210938 17.640625 -7.679688 17.640625 -8.296875 C 17.640625 -8.898438 17.242188 -9.328125 16.453125 -9.578125 C 15.660156 -9.828125 14.40625 -10.070312 12.6875 -10.3125 C 10.5 -10.582031 8.632812 -10.9375 7.09375 -11.375 C 5.5625 -11.8125 4.238281 -12.617188 3.125 -13.796875 C 2.019531 -14.972656 1.46875 -16.625 1.46875 -18.75 C 1.46875 -20.5 1.988281 -22.054688 3.03125 -23.421875 C 4.070312 -24.785156 5.59375 -25.863281 7.59375 -26.65625 C 9.601562 -27.445312 12.007812 -27.84375 14.8125 -27.84375 C 16.800781 -27.84375 18.769531 -27.640625 20.71875 -27.234375 C 22.675781 -26.835938 24.3125 -26.269531 25.625 -25.53125 L 22.75 -19 C 20.320312 -20.351562 17.691406 -21.03125 14.859375 -21.03125 C 13.347656 -21.03125 12.238281 -20.851562 11.53125 -20.5 C 10.820312 -20.144531 10.46875 -19.679688 10.46875 -19.109375 C 10.46875 -18.460938 10.851562 -18.015625 11.625 -17.765625 C 12.394531 -17.515625 13.675781 -17.253906 15.46875 -16.984375 C 17.726562 -16.648438 19.597656 -16.265625 21.078125 -15.828125 C 22.554688 -15.390625 23.84375 -14.585938 24.9375 -13.421875 C 26.039062 -12.253906 26.59375 -10.628906 26.59375 -8.546875 C 26.59375 -6.828125 26.066406 -5.285156 25.015625 -3.921875 C 23.972656 -2.554688 22.429688 -1.484375 20.390625 -0.703125 C 18.359375 0.0664062 15.910156 0.453125 13.046875 0.453125 Z M 13.046875 0.453125 "/></g></g></g><g fill="#c90c0f" fill-opacity="1"><g transform="translate(145.477764, 267.274758)"><g><path d="M 21.984375 -1.109375 C 21.179688 -0.609375 20.195312 -0.222656 19.03125 0.046875 C 17.863281 0.316406 16.625 0.453125 15.3125 0.453125 C 11.738281 0.453125 8.992188 -0.421875 7.078125 -2.171875 C 5.160156 -3.921875 4.203125 -6.535156 4.203125 -10.015625 L 4.203125 -19.203125 L 0.203125 -19.203125 L 0.203125 -26.390625 L 4.203125 -26.390625 L 4.203125 -33.515625 L 13.796875 -33.515625 L 13.796875 -26.390625 L 20.0625 -26.390625 L 20.0625 -19.203125 L 13.796875 -19.203125 L 13.796875 -10.109375 C 13.796875 -9.128906 14.054688 -8.359375 14.578125 -7.796875 C 15.097656 -7.242188 15.800781 -6.96875 16.6875 -6.96875 C 17.789062 -6.96875 18.765625 -7.253906 19.609375 -7.828125 Z M 21.984375 -1.109375 "/></g></g></g><g fill="#c90c0f" fill-opacity="1"><g transform="translate(165.588591, 267.274758)"><g><path d="M 16.828125 0.453125 C 13.898438 0.453125 11.253906 -0.148438 8.890625 -1.359375 C 6.535156 -2.578125 4.691406 -4.265625 3.359375 -6.421875 C 2.023438 -8.578125 1.359375 -11.019531 1.359375 -13.75 C 1.359375 -16.445312 2.023438 -18.875 3.359375 -21.03125 C 4.691406 -23.1875 6.53125 -24.859375 8.875 -26.046875 C 11.21875 -27.242188 13.867188 -27.84375 16.828125 -27.84375 C 19.796875 -27.84375 22.457031 -27.242188 24.8125 -26.046875 C 27.175781 -24.859375 29.015625 -23.191406 30.328125 -21.046875 C 31.640625 -18.910156 32.296875 -16.476562 32.296875 -13.75 C 32.296875 -11.019531 31.640625 -8.578125 30.328125 -6.421875 C 29.015625 -4.265625 27.175781 -2.578125 24.8125 -1.359375 C 22.457031 -0.148438 19.796875 0.453125 16.828125 0.453125 Z M 16.828125 -7.171875 C 18.515625 -7.171875 19.894531 -7.753906 20.96875 -8.921875 C 22.050781 -10.085938 22.59375 -11.695312 22.59375 -13.75 C 22.59375 -15.769531 22.050781 -17.351562 20.96875 -18.5 C 19.894531 -19.644531 18.515625 -20.21875 16.828125 -20.21875 C 15.148438 -20.21875 13.769531 -19.644531 12.6875 -18.5 C 11.601562 -17.351562 11.0625 -15.769531 11.0625 -13.75 C 11.0625 -11.695312 11.601562 -10.085938 12.6875 -8.921875 C 13.769531 -7.753906 15.148438 -7.171875 16.828125 -7.171875 Z M 16.828125 -7.171875 "/></g></g></g><g fill="#c90c0f" fill-opacity="1"><g transform="translate(196.765752, 267.274758)"><g><path d="M 13.546875 -27.65625 L 13.546875 -19.859375 L 29.171875 -19.859375 L 29.171875 -12.125 L 13.546875 -12.125 L 13.546875 0 L 3.53125 0 L 3.53125 -35.390625 L 31.28125 -35.390625 L 31.28125 -27.65625 Z M 13.546875 -27.65625 "/></g></g></g><g fill="#c90c0f" fill-opacity="1"><g transform="translate(226.730159, 267.274758)"><g><path d="M 3.078125 -37.5 L 12.6875 -37.5 L 12.6875 0 L 3.078125 0 Z M 3.078125 -37.5 "/></g></g></g><g fill="#c90c0f" fill-opacity="1"><g transform="translate(240.069803, 267.274758)"><g><path d="M 16.828125 0.453125 C 13.898438 0.453125 11.253906 -0.148438 8.890625 -1.359375 C 6.535156 -2.578125 4.691406 -4.265625 3.359375 -6.421875 C 2.023438 -8.578125 1.359375 -11.019531 1.359375 -13.75 C 1.359375 -16.445312 2.023438 -18.875 3.359375 -21.03125 C 4.691406 -23.1875 6.53125 -24.859375 8.875 -26.046875 C 11.21875 -27.242188 13.867188 -27.84375 16.828125 -27.84375 C 19.796875 -27.84375 22.457031 -27.242188 24.8125 -26.046875 C 27.175781 -24.859375 29.015625 -23.191406 30.328125 -21.046875 C 31.640625 -18.910156 32.296875 -16.476562 32.296875 -13.75 C 32.296875 -11.019531 31.640625 -8.578125 30.328125 -6.421875 C 29.015625 -4.265625 27.175781 -2.578125 24.8125 -1.359375 C 22.457031 -0.148438 19.796875 0.453125 16.828125 0.453125 Z M 16.828125 -7.171875 C 18.515625 -7.171875 19.894531 -7.753906 20.96875 -8.921875 C 22.050781 -10.085938 22.59375 -11.695312 22.59375 -13.75 C 22.59375 -15.769531 22.050781 -17.351562 20.96875 -18.5 C 19.894531 -19.644531 18.515625 -20.21875 16.828125 -20.21875 C 15.148438 -20.21875 13.769531 -19.644531 12.6875 -18.5 C 11.601562 -17.351562 11.0625 -15.769531 11.0625 -13.75 C 11.0625 -11.695312 11.601562 -10.085938 12.6875 -8.921875 C 13.769531 -7.753906 15.148438 -7.171875 16.828125 -7.171875 Z M 16.828125 -7.171875 "/></g></g></g><g fill="#c90c0f" fill-opacity="1"><g transform="translate(271.246952, 267.274758)"><g><path d="M 48.46875 -27.390625 L 38.71875 0 L 29.421875 0 L 24.265625 -14.90625 L 18.90625 0 L 9.609375 0 L -0.15625 -27.390625 L 8.953125 -27.390625 L 14.5625 -10.8125 L 20.375 -27.390625 L 28.5625 -27.390625 L 34.21875 -10.671875 L 40.03125 -27.390625 Z M 48.46875 -27.390625 "/></g></g></g></svg>